<mxfile host="app.diagrams.net" modified="2023-10-18T11:29:16.988Z" agent="Mozilla/5.0 (Windows NT 10.0; Win64; x64) AppleWebKit/537.36 (KHTML, like Gecko) Chrome/115.0.0.0 Safari/537.36" version="22.0.4" etag="wwJ7EcECgfKT6j5PzAbT" type="github">
  <diagram name="Trang-1" id="XadkzpPGXKolPBVG3gUL">
    <mxGraphModel>
      <root>
        <mxCell id="0" />
        <mxCell id="1" parent="0" />
      </root>
    </mxGraphModel>
  </diagram>
</mxfile>
